<svg width="50" height="50" viewBox="0 0 50 50" fill="none" xmlns="http://www.w3.org/2000/svg">
<path d="M25.5 3C13.0706 3 3 12.8468 3 25C3 37.1532 13.0706 47 25.5 47C37.9294 47 48 37.1532 48 25C48 12.8468 37.9294 3 25.5 3ZM36.5504 18.0718L32.8579 35.0863C32.5857 36.2927 31.8508 36.5855 30.8256 36.0177L25.2006 31.9637L22.4879 34.5185C22.1885 34.8113 21.9345 35.0597 21.3538 35.0597L21.753 29.4621L32.1774 20.254C32.631 19.8637 32.0776 19.6419 31.4788 20.0323L18.5958 27.9629L13.0433 26.2685C11.8367 25.896 11.8095 25.0887 13.2974 24.521L34.9899 16.3419C35.997 15.9871 36.877 16.5815 36.5504 18.0718V18.0718Z" fill="#7B4E90"/>
</svg>
