<svg width="45" height="45" viewBox="0 0 45 45" fill="none" xmlns="http://www.w3.org/2000/svg">
<g clip-path="url(#clip0_220_17)">
<path d="M22.5 0.703125C10.0706 0.703125 0 10.459 0 22.5C0 34.541 10.0706 44.2969 22.5 44.2969C34.9294 44.2969 45 34.541 45 22.5C45 10.459 34.9294 0.703125 22.5 0.703125ZM33.5504 15.6357L29.8579 32.4932C29.5857 33.6885 28.8508 33.9785 27.8256 33.416L22.2006 29.3994L19.4879 31.9307C19.1885 32.2207 18.9345 32.4668 18.3538 32.4668L18.753 26.9209L29.1774 17.7979C29.631 17.4111 29.0776 17.1914 28.4788 17.5781L15.5958 25.4355L10.0433 23.7568C8.83669 23.3877 8.80948 22.5879 10.2974 22.0254L31.9899 13.9219C32.997 13.5703 33.877 14.1592 33.5504 15.6357V15.6357Z" fill="#7B4E90"/>
</g>
<defs>
<clipPath id="clip0_220_17">
<rect width="45" height="45" fill="white"/>
</clipPath>
</defs>
</svg>
