<svg width="50" height="52" viewBox="0 0 50 52" fill="none" xmlns="http://www.w3.org/2000/svg">
<path d="M41.6667 38.8869H37.5V19.9836L25 28.085L12.5 19.9836V38.8869H8.33335V12.9623H10.8334L25 22.1439L39.1667 12.9623H41.6667M41.6667 8.64154H8.33335C6.02085 8.64154 4.16669 10.5643 4.16669 12.9623V38.8869C4.16669 40.0329 4.60567 41.1319 5.38708 41.9422C6.16848 42.7525 7.22829 43.2077 8.33335 43.2077H41.6667C42.7718 43.2077 43.8316 42.7525 44.613 41.9422C45.3944 41.1319 45.8334 40.0329 45.8334 38.8869V12.9623C45.8334 11.8164 45.3944 10.7174 44.613 9.90706C43.8316 9.09676 42.7718 8.64154 41.6667 8.64154Z" fill="#7B4E90"/>
</svg>
